<svg xmlns="http://www.w3.org/2000/svg" viewBox="0 0 256 257" fill="none">
  <defs>
    <linearGradient id="a" x1="53.11" x2="189.91" y1="34.036" y2="228.35" gradientUnits="userSpaceOnUse">
      <stop stop-color="#41D1FF"/>
      <stop offset="1" stop-color="#BD34FE"/>
    </linearGradient>
    <linearGradient id="b" x1="95.522" x2="159.404" y1="26.574" y2="167.57" gradientUnits="userSpaceOnUse">
      <stop stop-color="#FFEA83"/>
      <stop offset=".083" stop-color="#FFDD35"/>
      <stop offset="1" stop-color="#FFA800"/>
    </linearGradient>
  </defs>
  <path fill="url(#a)" d="M255.153 37.938L134.897 252.976c-2.483 4.44-8.862 4.466-11.382.048L.875 37.958c-2.746-4.742 1.371-10.52 6.762-9.51l120.385 22.522a6.52 6.52 0 002.356-.004l117.681-22.46c5.37-1.023 9.512 4.696 6.797 9.45z"/>
  <path fill="url(#b)" d="M185.432.063L96.44 17.501a3.28 3.28 0 00-2.634 3.014l-5.56 92.54a3.28 3.28 0 003.997 3.378l24.83-5.718c2.318-.534 4.413 1.507 3.936 3.842l-7.362 36.047c-.495 2.426 1.782 4.5 4.151 3.78l15.31-4.649c2.372-.72 4.652 1.36 4.15 3.788l-11.698 56.621c-.732 3.542 3.979 5.473 5.943 2.437l1.313-2.028 72.516-144.72c1.215-2.427-.88-5.186-3.547-4.672l-25.51 4.922c-2.396.462-4.435-1.77-3.759-4.114l16.63-57.14c.677-2.339-1.37-4.574-3.77-4.108z"/>
</svg>
